<svg xmlns="http://www.w3.org/2000/svg" xmlns:xlink="http://www.w3.org/1999/xlink" contentStyleType="text/css" data-diagram-type="DESCRIPTION" height="1502px" preserveAspectRatio="none" style="width:1465px;height:1502px;background:#FFFFFF;" version="1.1" viewBox="0 0 1465 1502" width="1465px" zoomAndPan="magnify"><title>&#1057;&#1080;&#1089;&#1090;&#1077;&#1084;&#1072; "ServiceEngineer"
&#1044;&#1080;&#1072;&#1075;&#1088;&#1072;&#1084;&#1084;&#1072; &#1074;&#1072;&#1088;&#1080;&#1072;&#1085;&#1090;&#1086;&#1074; &#1080;&#1089;&#1087;&#1086;&#1083;&#1100;&#1079;&#1086;&#1074;&#1072;&#1085;&#1080;&#1103;</title><defs/><g><g class="title" data-source-line="49"><text fill="#FFFFFF" font-family="Arial" font-size="14" font-weight="bold" lengthAdjust="spacing" textLength="214.7578" x="618.1211" y="22.9951">&#1057;&#1080;&#1089;&#1090;&#1077;&#1084;&#1072; "ServiceEngineer"</text><text fill="#FFFFFF" font-family="Arial" font-size="14" font-weight="bold" lengthAdjust="spacing" textLength="305.4775" x="572.7612" y="39.292">&#1044;&#1080;&#1072;&#1075;&#1088;&#1072;&#1084;&#1084;&#1072; &#1074;&#1072;&#1088;&#1080;&#1072;&#1085;&#1090;&#1086;&#1074; &#1080;&#1089;&#1087;&#1086;&#1083;&#1100;&#1079;&#1086;&#1074;&#1072;&#1085;&#1080;&#1103;</text></g><!--cluster ? ??????? ServiceEngineer--><g class="cluster" data-entity=". ....... ServiceEngineer" data-source-line="52" data-uid="ent0002" id="cluster_. ....... ServiceEngineer"><rect fill="#FFFFFF" height="1355" rx="2.5" ry="2.5" style="stroke:#0066CC;stroke-width:2;" width="1262.36" x="196.64" y="141.5338"/><text fill="#FFFFFF" font-family="Arial" font-size="12" font-weight="bold" lengthAdjust="spacing" textLength="182.9531" x="736.3434" y="154.6724">&#128230; &#1057;&#1080;&#1089;&#1090;&#1077;&#1084;&#1072; ServiceEngineer</text></g><!--cluster ? ????????? ??????????--><g class="cluster" data-entity=". ......... .........." data-source-line="61" data-uid="ent0007" id="cluster_. ......... .........."><rect fill="#FFFFFF" height="532" rx="2.5" ry="2.5" style="stroke:#0066CC;stroke-width:2;" width="741.38" x="693.62" y="302.5338"/><text fill="#FFFFFF" font-family="Arial" font-size="12" font-weight="bold" lengthAdjust="spacing" textLength="180.8203" x="973.8998" y="315.6724">&#128241; &#1052;&#1086;&#1073;&#1080;&#1083;&#1100;&#1085;&#1086;&#1077; &#1087;&#1088;&#1080;&#1083;&#1086;&#1078;&#1077;&#1085;&#1080;&#1077;</text></g><!--cluster ? ???-?????????--><g class="cluster" data-entity=". ...-........." data-source-line="81" data-uid="ent0024" id="cluster_. ...-........."><rect fill="#FFFFFF" height="329" rx="2.5" ry="2.5" style="stroke:#0066CC;stroke-width:2;" width="545.67" x="392.75" y="1130.5338"/><text fill="#FFFFFF" font-family="Arial" font-size="12" font-weight="bold" lengthAdjust="spacing" textLength="117.9727" x="606.5987" y="1143.6724">&#127760; &#1042;&#1077;&#1073;-&#1080;&#1085;&#1090;&#1077;&#1088;&#1092;&#1077;&#1081;&#1089;</text></g><!--entity Engineer--><g class="entity" data-entity="Engineer" data-source-line="55" data-uid="ent0003" id="entity_Engineer"><ellipse cx="523.2685" cy="798.0538" fill="#ADD8E6" rx="8" ry="8" style="stroke:#000080;stroke-width:2;"/><path d="M523.2685,806.0538 L523.2685,833.0538 M510.2685,814.0538 L536.2685,814.0538 M523.2685,833.0538 L510.2685,848.0538 M523.2685,833.0538 L536.2685,848.0538" fill="none" style="stroke:#000080;stroke-width:2;"/><text fill="#000000" font-family="Arial" font-size="12" lengthAdjust="spacing" textLength="68.877" x="488.83" y="862.1924">&#128100; &#1048;&#1085;&#1078;&#1077;&#1085;&#1077;&#1088;</text></g><!--entity Admin--><g class="entity" data-entity="Admin" data-source-line="56" data-uid="ent0004" id="entity_Admin"><ellipse cx="267.9027" cy="1198.0538" fill="#ADD8E6" rx="8" ry="8" style="stroke:#000080;stroke-width:2;"/><path d="M267.9027,1206.0538 L267.9027,1233.0538 M254.9027,1214.0538 L280.9027,1214.0538 M267.9027,1233.0538 L254.9027,1248.0538 M267.9027,1233.0538 L280.9027,1248.0538" fill="none" style="stroke:#000080;stroke-width:2;"/><text fill="#000000" font-family="Arial" font-size="12" lengthAdjust="spacing" textLength="110.5254" x="212.64" y="1262.1924">&#128084; &#1040;&#1076;&#1084;&#1080;&#1085;&#1080;&#1089;&#1090;&#1088;&#1072;&#1090;&#1086;&#1088;</text></g><!--entity System--><g class="entity" data-entity="System" data-source-line="57" data-uid="ent0005" id="entity_System"><ellipse cx="523.2752" cy="305.0325" fill="#ADD8E6" rx="8" ry="8" style="stroke:#000080;stroke-width:2;"/><path d="M523.2752,313.0325 L523.2752,340.0325 M510.2752,321.0325 L536.2752,321.0325 M523.2752,340.0325 L510.2752,355.0325 M523.2752,340.0325 L536.2752,355.0325" fill="none" style="stroke:#000080;stroke-width:2;"/><text fill="#000000" font-family="Arial" font-size="12" lengthAdjust="spacing" textLength="64.5703" x="490.99" y="369.1712">&#128421;&#65039; &#1057;&#1080;&#1089;&#1090;&#1077;&#1084;&#1072;</text><text fill="#000000" font-family="Arial" font-size="12" font-style="italic" lengthAdjust="spacing" textLength="58.0664" x="494.242" y="292.2024">&#171;system&#187;</text></g><!--entity Client--><g class="entity" data-entity="Client" data-source-line="58" data-uid="ent0006" id="entity_Client"><ellipse cx="1082.1513" cy="220.0538" fill="#ADD8E6" rx="8" ry="8" style="stroke:#000080;stroke-width:2;"/><path d="M1082.1513,228.0538 L1082.1513,255.0538 M1069.1513,236.0538 L1095.1513,236.0538 M1082.1513,255.0538 L1069.1513,270.0538 M1082.1513,255.0538 L1095.1513,270.0538" fill="none" style="stroke:#000080;stroke-width:2;"/><text fill="#000000" font-family="Arial" font-size="12" lengthAdjust="spacing" textLength="57.2227" x="1053.54" y="284.1924">&#128104; &#1050;&#1083;&#1080;&#1077;&#1085;&#1090;</text></g><!--entity UC1--><g class="entity" data-entity="UC1" data-source-line="62" data-uid="ent0008" id="entity_UC1"><ellipse cx="810.101" cy="427.5379" fill="#FFFACD" rx="88.721" ry="20.1442" style="stroke:#FF8C00;stroke-width:2;"/><text fill="#000000" font-family="Arial" font-size="13" font-weight="bold" lengthAdjust="spacing" textLength="153.8418" x="733.1801" y="431.6044">UC1: &#1042;&#1093;&#1086;&#1076; &#1074; &#1089;&#1080;&#1089;&#1090;&#1077;&#1084;&#1091;</text></g><!--entity UC2--><g class="entity" data-entity="UC2" data-source-line="63" data-uid="ent0009" id="entity_UC2"><ellipse cx="810.0992" cy="571.5296" fill="#FFFACD" rx="100.4792" ry="22.4958" style="stroke:#FF8C00;stroke-width:2;"/><text fill="#000000" font-family="Arial" font-size="13" font-weight="bold" lengthAdjust="spacing" textLength="179.6768" x="720.2608" y="575.596">UC2: &#1055;&#1088;&#1086;&#1089;&#1084;&#1086;&#1090;&#1088; &#1085;&#1072;&#1088;&#1103;&#1076;&#1086;&#1074;</text></g><!--entity UC3--><g class="entity" data-entity="UC3" data-source-line="64" data-uid="ent0010" id="entity_UC3"><ellipse cx="810.1045" cy="721.5387" fill="#FFFACD" rx="88.5245" ry="20.1049" style="stroke:#FF8C00;stroke-width:2;"/><text fill="#000000" font-family="Arial" font-size="13" font-weight="bold" lengthAdjust="spacing" textLength="153.4038" x="733.4026" y="725.6051">UC3: &#1044;&#1077;&#1090;&#1072;&#1083;&#1080; &#1085;&#1072;&#1088;&#1103;&#1076;&#1072;</text></g><!--entity UC4--><g class="entity" data-entity="UC4" data-source-line="65" data-uid="ent0011" id="entity_UC4"><ellipse cx="1082.1512" cy="731.534" fill="#FFFACD" rx="87.7512" ry="19.9502" style="stroke:#FF8C00;stroke-width:2;"/><text fill="#000000" font-family="Arial" font-size="13" font-weight="bold" lengthAdjust="spacing" textLength="151.6772" x="1006.3125" y="735.6004">UC4: &#1055;&#1088;&#1080;&#1085;&#1103;&#1090;&#1100; &#1085;&#1072;&#1088;&#1103;&#1076;</text></g><!--entity UC5--><g class="entity" data-entity="UC5" data-source-line="66" data-uid="ent0012" id="entity_UC5"><ellipse cx="1082.1454" cy="655.5308" fill="#FFFACD" rx="95.5854" ry="21.5171" style="stroke:#FF8C00;stroke-width:2;"/><text fill="#000000" font-family="Arial" font-size="13" font-weight="bold" lengthAdjust="spacing" textLength="169.0063" x="997.6422" y="659.5972">UC5: &#1054;&#1090;&#1082;&#1083;&#1086;&#1085;&#1080;&#1090;&#1100; &#1085;&#1072;&#1088;&#1103;&#1076;</text></g><!--entity UC6--><g class="entity" data-entity="UC6" data-source-line="67" data-uid="ent0013" id="entity_UC6"><ellipse cx="1082.1538" cy="576.5305" fill="#FFFACD" rx="99.7338" ry="22.3468" style="stroke:#FF8C00;stroke-width:2;"/><text fill="#000000" font-family="Arial" font-size="13" font-weight="bold" lengthAdjust="spacing" textLength="178.0581" x="993.1248" y="580.5969">UC6: &#1055;&#1088;&#1086;&#1090;&#1086;&#1082;&#1086;&#1083; &#1086;&#1089;&#1084;&#1086;&#1090;&#1088;&#1072;</text></g><!--entity UC7--><g class="entity" data-entity="UC7" data-source-line="68" data-uid="ent0014" id="entity_UC7"><ellipse cx="1082.1487" cy="802.5295" fill="#FFFACD" rx="66.2787" ry="15.6557" style="stroke:#FF8C00;stroke-width:2;"/><text fill="#000000" font-family="Arial" font-size="13" font-weight="bold" lengthAdjust="spacing" textLength="101.4482" x="1031.4246" y="806.5959">UC7: &#1047;&#1072;&#1084;&#1077;&#1090;&#1082;&#1072;</text></g><!--entity UC8--><g class="entity" data-entity="UC8" data-source-line="69" data-uid="ent0015" id="entity_UC8"><ellipse cx="1330.4425" cy="778.5303" fill="#FFFACD" rx="57.0325" ry="13.8065" style="stroke:#FF8C00;stroke-width:2;"/><text fill="#000000" font-family="Arial" font-size="13" font-weight="bold" lengthAdjust="spacing" textLength="77.1558" x="1291.8647" y="782.5967">UC8: &#1060;&#1086;&#1090;&#1086;</text></g><!--entity UC9--><g class="entity" data-entity="UC9" data-source-line="70" data-uid="ent0016" id="entity_UC9"><ellipse cx="1330.4429" cy="690.5383" fill="#FFFACD" rx="60.3229" ry="14.4646" style="stroke:#FF8C00;stroke-width:2;"/><text fill="#000000" font-family="Arial" font-size="13" font-weight="bold" lengthAdjust="spacing" textLength="86.1313" x="1287.3772" y="694.6047">UC9: &#1042;&#1080;&#1076;&#1077;&#1086;</text></g><!--entity UC10--><g class="entity" data-entity="UC10" data-source-line="71" data-uid="ent0017" id="entity_UC10"><ellipse cx="810.0962" cy="498.537" fill="#FFFACD" rx="67.1162" ry="15.8232" style="stroke:#FF8C00;stroke-width:2;"/><text fill="#000000" font-family="Arial" font-size="13" font-weight="bold" lengthAdjust="spacing" textLength="103.5303" x="758.3311" y="502.6034">UC10: &#1054;&#1090;&#1095;&#1077;&#1090;&#1099;</text></g><!--entity UC11--><g class="entity" data-entity="UC11" data-source-line="72" data-uid="ent0018" id="entity_UC11"><ellipse cx="810.0996" cy="353.5317" fill="#FFFACD" rx="81.2896" ry="18.6579" style="stroke:#FF8C00;stroke-width:2;"/><text fill="#000000" font-family="Arial" font-size="13" font-weight="bold" lengthAdjust="spacing" textLength="137.084" x="741.5576" y="357.5981">UC11: &#1043;&#1077;&#1086;&#1083;&#1086;&#1082;&#1072;&#1094;&#1080;&#1103;</text></g><!--entity UC12--><g class="entity" data-entity="UC12" data-source-line="73" data-uid="ent0019" id="entity_UC12"><ellipse cx="1082.1475" cy="457.5352" fill="#FFFACD" rx="73.1075" ry="17.0215" style="stroke:#FF8C00;stroke-width:2;"/><text fill="#000000" font-family="Arial" font-size="13" font-weight="bold" lengthAdjust="spacing" textLength="118.0474" x="1023.1238" y="461.6017">UC12: &#1052;&#1072;&#1088;&#1096;&#1088;&#1091;&#1090;</text></g><!--entity UC13--><g class="entity" data-entity="UC13" data-source-line="74" data-uid="ent0020" id="entity_UC13"><ellipse cx="1330.4387" cy="429.5355" fill="#FFFACD" rx="88.5587" ry="20.1117" style="stroke:#FF8C00;stroke-width:2;"/><text fill="#000000" font-family="Arial" font-size="13" font-weight="bold" lengthAdjust="spacing" textLength="153.48" x="1253.6987" y="433.6019">UC13: &#1060;&#1086;&#1088;&#1084;&#1072; &#1086;&#1090;&#1095;&#1077;&#1090;&#1072;</text></g><!--entity UC14--><g class="entity" data-entity="UC14" data-source-line="75" data-uid="ent0021" id="entity_UC14"><ellipse cx="1330.4407" cy="576.5299" fill="#FFFACD" rx="70.6807" ry="16.5361" style="stroke:#FF8C00;stroke-width:2;"/><text fill="#000000" font-family="Arial" font-size="13" font-weight="bold" lengthAdjust="spacing" textLength="112.2393" x="1274.3211" y="580.5963">UC14: &#1055;&#1086;&#1076;&#1087;&#1080;&#1089;&#1100;</text></g><!--entity UC15--><g class="entity" data-entity="UC15" data-source-line="76" data-uid="ent0022" id="entity_UC15"><ellipse cx="810.0992" cy="647.5356" fill="#FFFACD" rx="81.4592" ry="18.6918" style="stroke:#FF8C00;stroke-width:2;"/><text fill="#000000" font-family="Arial" font-size="13" font-weight="bold" lengthAdjust="spacing" textLength="137.4712" x="741.3636" y="651.602">UC15: &#1048;&#1085;&#1089;&#1090;&#1088;&#1091;&#1082;&#1094;&#1080;&#1080;</text></g><!--entity UC16--><g class="entity" data-entity="UC16" data-source-line="77" data-uid="ent0023" id="entity_UC16"><ellipse cx="810.1002" cy="797.5318" fill="#FFFACD" rx="92.3902" ry="20.878" style="stroke:#FF8C00;stroke-width:2;"/><text fill="#000000" font-family="Arial" font-size="13" font-weight="bold" lengthAdjust="spacing" textLength="161.9795" x="729.1104" y="801.5982">UC16: &#1052;&#1086;&#1085;&#1080;&#1090;&#1086;&#1088;&#1080;&#1085;&#1075; &#1058;&#1040;</text></g><!--entity UC17--><g class="entity" data-entity="UC17" data-source-line="82" data-uid="ent0025" id="entity_UC17"><ellipse cx="523.2708" cy="1418.5379" fill="#FFFACD" rx="114.5208" ry="25.3042" style="stroke:#FF8C00;stroke-width:2;"/><text fill="#000000" font-family="Arial" font-size="13" font-weight="bold" lengthAdjust="spacing" textLength="209.8154" x="418.3631" y="1422.6043">UC17: &#1059;&#1087;&#1088;&#1072;&#1074;&#1083;&#1077;&#1085;&#1080;&#1077; &#1102;&#1079;&#1077;&#1088;&#1072;&#1084;&#1080;</text></g><!--entity UC18--><g class="entity" data-entity="UC18" data-source-line="83" data-uid="ent0026" id="entity_UC18"><ellipse cx="810.1014" cy="1418.536" fill="#FFFACD" rx="112.3114" ry="24.8623" style="stroke:#FF8C00;stroke-width:2;"/><text fill="#000000" font-family="Arial" font-size="13" font-weight="bold" lengthAdjust="spacing" textLength="205.1118" x="707.5455" y="1422.6024">UC18: &#1053;&#1072;&#1079;&#1085;&#1072;&#1095;&#1077;&#1085;&#1080;&#1077; &#1085;&#1072;&#1088;&#1103;&#1076;&#1086;&#1074;</text></g><!--entity UC19--><g class="entity" data-entity="UC19" data-source-line="84" data-uid="ent0027" id="entity_UC19"><ellipse cx="523.2653" cy="1339.5288" fill="#FFFACD" rx="79.2253" ry="18.2451" style="stroke:#FF8C00;stroke-width:2;"/><text fill="#000000" font-family="Arial" font-size="13" font-weight="bold" lengthAdjust="spacing" textLength="132.3486" x="457.091" y="1343.5952">UC19: &#1057;&#1090;&#1072;&#1090;&#1080;&#1089;&#1090;&#1080;&#1082;&#1072;</text></g><!--entity UC20--><g class="entity" data-entity="UC20" data-source-line="85" data-uid="ent0028" id="entity_UC20"><ellipse cx="523.2743" cy="1265.5366" fill="#FFFACD" rx="92.3643" ry="20.8729" style="stroke:#FF8C00;stroke-width:2;"/><text fill="#000000" font-family="Arial" font-size="13" font-weight="bold" lengthAdjust="spacing" textLength="161.9224" x="442.3131" y="1269.603">UC20: &#1059;&#1087;&#1088;&#1072;&#1074;&#1083;&#1077;&#1085;&#1080;&#1077; &#1058;&#1040;</text></g><!--entity UC21--><g class="entity" data-entity="UC21" data-source-line="86" data-uid="ent0029" id="entity_UC21"><ellipse cx="523.2699" cy="1186.5357" fill="#FFFACD" rx="105.9099" ry="23.582" style="stroke:#FF8C00;stroke-width:2;"/><text fill="#000000" font-family="Arial" font-size="13" font-weight="bold" lengthAdjust="spacing" textLength="191.4072" x="427.5663" y="1190.6021">UC21: &#1043;&#1077;&#1085;&#1077;&#1088;&#1072;&#1094;&#1080;&#1103; &#1086;&#1090;&#1095;&#1077;&#1090;&#1086;&#1074;</text></g><!--entity User--><g class="entity" data-entity="User" data-source-line="157" data-uid="ent0070" id="entity_User"><ellipse cx="73.7639" cy="798.0538" fill="#ADD8E6" rx="8" ry="8" style="stroke:#000080;stroke-width:2;"/><path d="M73.7639,806.0538 L73.7639,833.0538 M60.7639,814.0538 L86.7639,814.0538 M73.7639,833.0538 L60.7639,848.0538 M73.7639,833.0538 L86.7639,848.0538" fill="none" style="stroke:#000080;stroke-width:2;"/><text fill="#000000" font-family="Arial" font-size="12" lengthAdjust="spacing" textLength="106.5879" x="20.47" y="862.1924">&#128104;&#8205;&#128188; &#1055;&#1086;&#1083;&#1100;&#1079;&#1086;&#1074;&#1072;&#1090;&#1077;&#1083;&#1100;</text></g><g class="entity" data-entity="GMN73" data-source-line="162" data-uid="ent0074" id="entity_GMN73"><path d="M187.06,59.5938 L187.06,125.4688 L348.7553,125.4688 L348.7553,69.5938 L338.7553,59.5938 L187.06,59.5938" fill="#714137" style="stroke:#E7E7E7;stroke-width:0.5;"/><path d="M338.7553,59.5938 L338.7553,69.5938 L348.7553,69.5938 L338.7553,59.5938" fill="#714137" style="stroke:#E7E7E7;stroke-width:1;"/><text fill="#000000" font-family="Arial" font-size="12" lengthAdjust="spacing" textLength="140.6953" x="193.06" y="75.7324">&#1041;&#1072;&#1079;&#1086;&#1074;&#1099;&#1081; &#1082;&#1083;&#1072;&#1089;&#1089; &#1072;&#1082;&#1090;&#1077;&#1088;&#1072;</text><text fill="#000000" font-family="Arial" font-size="12" lengthAdjust="spacing" textLength="112.4941" x="193.06" y="89.7012">&#1054;&#1073;&#1097;&#1080;&#1077; &#1086;&#1087;&#1077;&#1088;&#1072;&#1094;&#1080;&#1080;:</text><text fill="#000000" font-family="Arial" font-size="12" lengthAdjust="spacing" textLength="108.0879" x="193.06" y="103.6699">&#8226; &#1042;&#1093;&#1086;&#1076; &#1074; &#1089;&#1080;&#1089;&#1090;&#1077;&#1084;&#1091;</text><text fill="#000000" font-family="Arial" font-size="12" lengthAdjust="spacing" textLength="126.498" x="193.06" y="117.6387">&#8226; &#1055;&#1088;&#1086;&#1089;&#1084;&#1086;&#1090;&#1088; &#1086;&#1090;&#1095;&#1077;&#1090;&#1086;&#1074;</text></g><!--link Engineer to UC1--><g class="link" data-entity-1="Engineer" data-entity-2="UC1" data-link-type="dependency" data-source-line="93" data-uid="lnk30" id="link_Engineer_UC1"><path d="M513,787.8438 C513,688.8738 513,434.2438 513,434.2438 C513,434.2438 631.92,434.2438 719.76,434.2438" fill="none" id="Engineer-to-UC1" style="stroke:#E7E7E7;stroke-width:1;"/><polygon fill="#E7E7E7" points="725.76,434.2438,716.76,430.2438,720.76,434.2438,716.76,438.2438,725.76,434.2438" style="stroke:#E7E7E7;stroke-width:1;"/><text fill="#FFFFFF" font-family="Arial" font-size="12" lengthAdjust="spacing" textLength="72.1816" x="440" y="516.8024">&#1080;&#1089;&#1087;&#1086;&#1083;&#1100;&#1079;&#1091;&#1077;&#1090;</text></g><!--link Engineer to UC2--><g class="link" data-entity-1="Engineer" data-entity-2="UC2" data-link-type="dependency" data-source-line="94" data-uid="lnk31" id="link_Engineer_UC2"><path d="M557.81,795.6438 C612.77,795.6438 714,795.6438 714,795.6438 C714,795.6438 714,622.3138 714,584.4838" fill="none" id="Engineer-to-UC2" style="stroke:#E7E7E7;stroke-width:1;"/><polygon fill="#E7E7E7" points="714,578.4838,710,587.4838,714,583.4838,718,587.4838,714,578.4838" style="stroke:#E7E7E7;stroke-width:1;"/><text fill="#FFFFFF" font-family="Arial" font-size="12" lengthAdjust="spacing" textLength="72.1816" x="641" y="762.2924">&#1080;&#1089;&#1087;&#1086;&#1083;&#1100;&#1079;&#1091;&#1077;&#1090;</text></g><!--link Engineer to UC3--><g class="link" data-entity-1="Engineer" data-entity-2="UC3" data-link-type="dependency" data-source-line="95" data-uid="lnk32" id="link_Engineer_UC3"><path d="M549,787.7338 C549,757.8238 549,721.5338 549,721.5338 C549,721.5338 639.65,721.5338 715.34,721.5338" fill="none" id="Engineer-to-UC3" style="stroke:#E7E7E7;stroke-width:1;"/><polygon fill="#E7E7E7" points="721.34,721.5338,712.34,717.5338,716.34,721.5338,712.34,725.5338,721.34,721.5338" style="stroke:#E7E7E7;stroke-width:1;"/><text fill="#FFFFFF" font-family="Arial" font-size="12" lengthAdjust="spacing" textLength="72.1816" x="529.07" y="733.6724">&#1080;&#1089;&#1087;&#1086;&#1083;&#1100;&#1079;&#1091;&#1077;&#1090;</text></g><!--link Engineer to UC4--><g class="link" data-entity-1="Engineer" data-entity-2="UC4" data-link-type="dependency" data-source-line="96" data-uid="lnk33" id="link_Engineer_UC4"><path d="M557.99,835.8938 C668.67,835.8938 1006,835.8938 1006,835.8938 C1006,835.8938 1006,773.6638 1006,747.5438" fill="none" id="Engineer-to-UC4" style="stroke:#E7E7E7;stroke-width:1;"/><polygon fill="#E7E7E7" points="1006,741.5438,1002,750.5438,1006,746.5438,1010,750.5438,1006,741.5438" style="stroke:#E7E7E7;stroke-width:1;"/><text fill="#FFFFFF" font-family="Arial" font-size="12" lengthAdjust="spacing" textLength="72.1816" x="756.17" y="848.0324">&#1080;&#1089;&#1087;&#1086;&#1083;&#1100;&#1079;&#1091;&#1077;&#1090;</text></g><!--link Engineer to UC5--><g class="link" data-entity-1="Engineer" data-entity-2="UC5" data-link-type="dependency" data-source-line="97" data-uid="lnk34" id="link_Engineer_UC5"><path d="M558.05,830.0638 C666.44,830.0638 991,830.0638 991,830.0638 C991,830.0638 991,700.0438 991,668.1638" fill="none" id="Engineer-to-UC5" style="stroke:#E7E7E7;stroke-width:1;"/><polygon fill="#E7E7E7" points="991,662.1638,987,671.1638,991,667.1638,995,671.1638,991,662.1638" style="stroke:#E7E7E7;stroke-width:1;"/><text fill="#FFFFFF" font-family="Arial" font-size="12" lengthAdjust="spacing" textLength="72.1816" x="859.47" y="842.2024">&#1080;&#1089;&#1087;&#1086;&#1083;&#1100;&#1079;&#1091;&#1077;&#1090;</text></g><!--link Engineer to UC6--><g class="link" data-entity-1="Engineer" data-entity-2="UC6" data-link-type="dependency" data-source-line="98" data-uid="lnk35" id="link_Engineer_UC6"><path d="M558.04,824.2338 C654.61,824.2338 919,824.2338 919,824.2338 C919,824.2338 919,580.7438 919,580.7438 C919,580.7438 943.4,580.7438 977.95,580.7438" fill="none" id="Engineer-to-UC6" style="stroke:#E7E7E7;stroke-width:1;"/><polygon fill="#E7E7E7" points="983.95,580.7438,974.95,576.7438,978.95,580.7438,974.95,584.7438,983.95,580.7438" style="stroke:#E7E7E7;stroke-width:1;"/><text fill="#FFFFFF" font-family="Arial" font-size="12" lengthAdjust="spacing" textLength="72.1816" x="893.74" y="825.1224">&#1080;&#1089;&#1087;&#1086;&#1083;&#1100;&#1079;&#1091;&#1077;&#1090;</text></g><!--link Engineer to UC7--><g class="link" data-entity-1="Engineer" data-entity-2="UC7" data-link-type="dependency" data-source-line="99" data-uid="lnk36" id="link_Engineer_UC7"><path d="M557.86,841.7138 C679.9,841.7138 1083,841.7138 1083,841.7138 C1083,841.7138 1083,835.3138 1083,824.4738" fill="none" id="Engineer-to-UC7" style="stroke:#E7E7E7;stroke-width:1;"/><polygon fill="#E7E7E7" points="1083,818.4738,1079,827.4738,1083,823.4738,1087,827.4738,1083,818.4738" style="stroke:#E7E7E7;stroke-width:1;"/><text fill="#FFFFFF" font-family="Arial" font-size="12" lengthAdjust="spacing" textLength="72.1816" x="833.05" y="853.8524">&#1080;&#1089;&#1087;&#1086;&#1083;&#1100;&#1079;&#1091;&#1077;&#1090;</text></g><!--link Engineer to UC8--><g class="link" data-entity-1="Engineer" data-entity-2="UC8" data-link-type="dependency" data-source-line="100" data-uid="lnk37" id="link_Engineer_UC8"><path d="M558.18,859.1938 C710.82,859.1938 1312,859.1938 1312,859.1938 C1312,859.1938 1312,820.7638 1312,797.8538" fill="none" id="Engineer-to-UC8" style="stroke:#E7E7E7;stroke-width:1;"/><polygon fill="#E7E7E7" points="1312,791.8538,1308,800.8538,1312,796.8538,1316,800.8538,1312,791.8538" style="stroke:#E7E7E7;stroke-width:1;"/><text fill="#FFFFFF" font-family="Arial" font-size="12" lengthAdjust="spacing" textLength="72.1816" x="895.76" y="871.3324">&#1080;&#1089;&#1087;&#1086;&#1083;&#1100;&#1079;&#1091;&#1077;&#1090;</text></g><!--link Engineer to UC9--><g class="link" data-entity-1="Engineer" data-entity-2="UC9" data-link-type="dependency" data-source-line="101" data-uid="lnk38" id="link_Engineer_UC9"><path d="M542,787.8938 C542,748.0438 542,691.6738 542,691.6738 C542,691.6738 1079.26,691.6738 1263.88,691.6738" fill="none" id="Engineer-to-UC9" style="stroke:#E7E7E7;stroke-width:1;"/><polygon fill="#E7E7E7" points="1269.88,691.6738,1260.88,687.6738,1264.88,691.6738,1260.88,695.6738,1269.88,691.6738" style="stroke:#E7E7E7;stroke-width:1;"/><text fill="#FFFFFF" font-family="Arial" font-size="12" lengthAdjust="spacing" textLength="72.1816" x="784.84" y="688.8124">&#1080;&#1089;&#1087;&#1086;&#1083;&#1100;&#1079;&#1091;&#1077;&#1090;</text></g><!--link Engineer to UC10--><g class="link" data-entity-1="Engineer" data-entity-2="UC10" data-link-type="dependency" data-source-line="102" data-uid="lnk39" id="link_Engineer_UC10"><path d="M527,787.6038 C527,701.7738 527,503.8038 527,503.8038 C527,503.8038 656.72,503.8038 740.22,503.8038" fill="none" id="Engineer-to-UC10" style="stroke:#E7E7E7;stroke-width:1;"/><polygon fill="#E7E7E7" points="746.22,503.8038,737.22,499.8038,741.22,503.8038,737.22,507.8038,746.22,503.8038" style="stroke:#E7E7E7;stroke-width:1;"/><text fill="#FFFFFF" font-family="Arial" font-size="12" lengthAdjust="spacing" textLength="72.1816" x="454" y="548.2324">&#1080;&#1089;&#1087;&#1086;&#1083;&#1100;&#1079;&#1091;&#1077;&#1090;</text></g><!--link Engineer to UC11--><g class="link" data-entity-1="Engineer" data-entity-2="UC11" data-link-type="dependency" data-source-line="103" data-uid="lnk40" id="link_Engineer_UC11"><path d="M557.88,810.8238 C580.55,810.8238 606,810.8238 606,810.8238 C606,810.8238 606,353.4438 606,353.4438 C606,353.4438 665.71,353.4438 722.56,353.4438" fill="none" id="Engineer-to-UC11" style="stroke:#E7E7E7;stroke-width:1;"/><polygon fill="#E7E7E7" points="728.56,353.4438,719.56,349.4438,723.56,353.4438,719.56,357.4438,728.56,353.4438" style="stroke:#E7E7E7;stroke-width:1;"/><text fill="#FFFFFF" font-family="Arial" font-size="12" lengthAdjust="spacing" textLength="72.1816" x="533" y="557.0524">&#1080;&#1089;&#1087;&#1086;&#1083;&#1100;&#1079;&#1091;&#1077;&#1090;</text></g><!--link Engineer to UC12--><g class="link" data-entity-1="Engineer" data-entity-2="UC12" data-link-type="dependency" data-source-line="104" data-uid="lnk41" id="link_Engineer_UC12"><path d="M520,787.7738 C520,693.7338 520,461.1138 520,461.1138 C520,461.1138 852.83,461.1138 1004.38,461.1138" fill="none" id="Engineer-to-UC12" style="stroke:#E7E7E7;stroke-width:1;"/><polygon fill="#E7E7E7" points="1010.38,461.1138,1001.38,457.1138,1005.38,461.1138,1001.38,465.1138,1010.38,461.1138" style="stroke:#E7E7E7;stroke-width:1;"/><text fill="#FFFFFF" font-family="Arial" font-size="12" lengthAdjust="spacing" textLength="72.1816" x="528.86" y="473.2524">&#1080;&#1089;&#1087;&#1086;&#1083;&#1100;&#1079;&#1091;&#1077;&#1090;</text></g><!--link Engineer to UC13--><g class="link" data-entity-1="Engineer" data-entity-2="UC13" data-link-type="dependency" data-source-line="105" data-uid="lnk42" id="link_Engineer_UC13"><path d="M557.88,847.5438 C702.5,847.5438 1251,847.5438 1251,847.5438 C1251,847.5438 1251,505.7838 1251,444.6537" fill="none" id="Engineer-to-UC13" style="stroke:#E7E7E7;stroke-width:1;"/><polygon fill="#E7E7E7" points="1251,438.6537,1247,447.6537,1251,443.6537,1255,447.6537,1251,438.6537" style="stroke:#E7E7E7;stroke-width:1;"/><text fill="#FFFFFF" font-family="Arial" font-size="12" lengthAdjust="spacing" textLength="72.1816" x="1109.88" y="859.6824">&#1080;&#1089;&#1087;&#1086;&#1083;&#1100;&#1079;&#1091;&#1077;&#1090;</text></g><!--link Engineer to UC14--><g class="link" data-entity-1="Engineer" data-entity-2="UC14" data-link-type="dependency" data-source-line="106" data-uid="lnk43" id="link_Engineer_UC14"><path d="M558.05,853.3638 C704.69,853.3638 1265,853.3638 1265,853.3638 C1265,853.3638 1265,631.0238 1265,589.1038" fill="none" id="Engineer-to-UC14" style="stroke:#E7E7E7;stroke-width:1;"/><polygon fill="#E7E7E7" points="1265,583.1038,1261,592.1038,1265,588.1038,1269,592.1038,1265,583.1038" style="stroke:#E7E7E7;stroke-width:1;"/><text fill="#FFFFFF" font-family="Arial" font-size="12" lengthAdjust="spacing" textLength="72.1816" x="973.66" y="865.5024">&#1080;&#1089;&#1087;&#1086;&#1083;&#1100;&#1079;&#1091;&#1077;&#1090;</text></g><!--link Engineer to UC15--><g class="link" data-entity-1="Engineer" data-entity-2="UC15" data-link-type="dependency" data-source-line="107" data-uid="lnk44" id="link_Engineer_UC15"><path d="M535,787.6938 C535,735.0438 535,647.5338 535,647.5338 C535,647.5338 641.22,647.5338 722.31,647.5338" fill="none" id="Engineer-to-UC15" style="stroke:#E7E7E7;stroke-width:1;"/><polygon fill="#E7E7E7" points="728.31,647.5338,719.31,643.5338,723.31,647.5338,719.31,651.5338,728.31,647.5338" style="stroke:#E7E7E7;stroke-width:1;"/><text fill="#FFFFFF" font-family="Arial" font-size="12" lengthAdjust="spacing" textLength="72.1816" x="488.57" y="659.6724">&#1080;&#1089;&#1087;&#1086;&#1083;&#1100;&#1079;&#1091;&#1077;&#1090;</text></g><!--link Engineer to UC16--><g class="link" data-entity-1="Engineer" data-entity-2="UC16" data-link-type="dependency" data-source-line="108" data-uid="lnk45" id="link_Engineer_UC16"><path d="M558.16,803.2338 C598.32,803.2338 659.82,803.2338 714.86,803.2338" fill="none" id="Engineer-to-UC16" style="stroke:#E7E7E7;stroke-width:1;"/><polygon fill="#E7E7E7" points="720.86,803.2338,711.86,799.2338,715.86,803.2338,711.86,807.2338,720.86,803.2338" style="stroke:#E7E7E7;stroke-width:1;"/><text fill="#FFFFFF" font-family="Arial" font-size="12" lengthAdjust="spacing" textLength="72.1816" x="566.51" y="815.3724">&#1080;&#1089;&#1087;&#1086;&#1083;&#1100;&#1079;&#1091;&#1077;&#1090;</text></g><!--link Admin to UC1--><g class="link" data-entity-1="Admin" data-entity-2="UC1" data-link-type="dependency" data-source-line="113" data-uid="lnk46" id="link_Admin_UC1"><path d="M250,1187.6738 C250,1026.7238 250,420.8238 250,420.8238 C250,420.8238 563.59,420.8238 719.95,420.8238" fill="none" id="Admin-to-UC1" style="stroke:#E7E7E7;stroke-width:1;"/><polygon fill="#E7E7E7" points="725.95,420.8238,716.95,416.8238,720.95,420.8238,716.95,424.8238,725.95,420.8238" style="stroke:#E7E7E7;stroke-width:1;"/><text fill="#FFFFFF" font-family="Arial" font-size="12" lengthAdjust="spacing" textLength="72.1816" x="177" y="578.4124">&#1080;&#1089;&#1087;&#1086;&#1083;&#1100;&#1079;&#1091;&#1077;&#1090;</text></g><!--link Admin to UC10--><g class="link" data-entity-1="Admin" data-entity-2="UC10" data-link-type="dependency" data-source-line="114" data-uid="lnk47" id="link_Admin_UC10"><path d="M287,1187.6238 C287,1036.0338 287,493.2638 287,493.2638 C287,493.2638 600.68,493.2638 740.22,493.2638" fill="none" id="Admin-to-UC10" style="stroke:#E7E7E7;stroke-width:1;"/><polygon fill="#E7E7E7" points="746.22,493.2638,737.22,489.2638,741.22,493.2638,737.22,497.2638,746.22,493.2638" style="stroke:#E7E7E7;stroke-width:1;"/><text fill="#FFFFFF" font-family="Arial" font-size="12" lengthAdjust="spacing" textLength="72.1816" x="214" y="622.9724">&#1080;&#1089;&#1087;&#1086;&#1083;&#1100;&#1079;&#1091;&#1077;&#1090;</text></g><!--link Admin to UC17--><g class="link" data-entity-1="Admin" data-entity-2="UC17" data-link-type="dependency" data-source-line="115" data-uid="lnk48" id="link_Admin_UC17"><path d="M323.55,1258.2338 C364.84,1258.2338 414,1258.2338 414,1258.2338 C414,1258.2338 414,1372.7838 414,1404.8038" fill="none" id="Admin-to-UC17" style="stroke:#E7E7E7;stroke-width:1;"/><polygon fill="#E7E7E7" points="414,1410.8038,418,1401.8038,414,1405.8038,410,1401.8038,414,1410.8038" style="stroke:#E7E7E7;stroke-width:1;"/><text fill="#FFFFFF" font-family="Arial" font-size="12" lengthAdjust="spacing" textLength="72.1816" x="341" y="1301.4324">&#1080;&#1089;&#1087;&#1086;&#1083;&#1100;&#1079;&#1091;&#1077;&#1090;</text></g><!--link Admin to UC18--><g class="link" data-entity-1="Admin" data-entity-2="UC18" data-link-type="dependency" data-source-line="116" data-uid="lnk49" id="link_Admin_UC18"><path d="M323.58,1227.3838 C441.14,1227.3838 704,1227.3838 704,1227.3838 C704,1227.3838 704,1367.0838 704,1404.0738" fill="none" id="Admin-to-UC18" style="stroke:#E7E7E7;stroke-width:1;"/><polygon fill="#E7E7E7" points="704,1410.0738,708,1401.0738,704,1405.0738,700,1401.0738,704,1410.0738" style="stroke:#E7E7E7;stroke-width:1;"/><text fill="#FFFFFF" font-family="Arial" font-size="12" lengthAdjust="spacing" textLength="72.1816" x="532.13" y="1239.5224">&#1080;&#1089;&#1087;&#1086;&#1083;&#1100;&#1079;&#1091;&#1077;&#1090;</text></g><!--link Admin to UC19--><g class="link" data-entity-1="Admin" data-entity-2="UC19" data-link-type="dependency" data-source-line="117" data-uid="lnk50" id="link_Admin_UC19"><path d="M268,1265.4238 C268,1298.1138 268,1339.5338 268,1339.5338 C268,1339.5338 362.65,1339.5338 437.55,1339.5338" fill="none" id="Admin-to-UC19" style="stroke:#E7E7E7;stroke-width:1;"/><polygon fill="#E7E7E7" points="443.55,1339.5338,434.55,1335.5338,438.55,1339.5338,434.55,1343.5338,443.55,1339.5338" style="stroke:#E7E7E7;stroke-width:1;"/><text fill="#FFFFFF" font-family="Arial" font-size="12" lengthAdjust="spacing" textLength="72.1816" x="245.72" y="1351.6724">&#1080;&#1089;&#1087;&#1086;&#1083;&#1100;&#1079;&#1091;&#1077;&#1090;</text></g><!--link Admin to UC20--><g class="link" data-entity-1="Admin" data-entity-2="UC20" data-link-type="dependency" data-source-line="118" data-uid="lnk51" id="link_Admin_UC20"><path d="M323.63,1251.4438 C361.79,1251.4438 406.67,1251.4438 447.52,1251.4438" fill="none" id="Admin-to-UC20" style="stroke:#E7E7E7;stroke-width:1;"/><polygon fill="#E7E7E7" points="453.52,1251.4438,444.52,1247.4438,448.52,1251.4438,444.52,1255.4438,453.52,1251.4438" style="stroke:#E7E7E7;stroke-width:1;"/><text fill="#FFFFFF" font-family="Arial" font-size="12" lengthAdjust="spacing" textLength="72.1816" x="315.57" y="1263.5824">&#1080;&#1089;&#1087;&#1086;&#1083;&#1100;&#1079;&#1091;&#1077;&#1090;</text></g><!--link Admin to UC21--><g class="link" data-entity-1="Admin" data-entity-2="UC21" data-link-type="dependency" data-source-line="119" data-uid="lnk52" id="link_Admin_UC21"><path d="M323.63,1199.0838 C355.48,1199.0838 390.19,1199.0838 426.53,1199.0838" fill="none" id="Admin-to-UC21" style="stroke:#E7E7E7;stroke-width:1;"/><polygon fill="#E7E7E7" points="432.53,1199.0838,423.53,1195.0838,427.53,1199.0838,423.53,1203.0838,432.53,1199.0838" style="stroke:#E7E7E7;stroke-width:1;"/><text fill="#FFFFFF" font-family="Arial" font-size="12" lengthAdjust="spacing" textLength="72.1816" x="305.08" y="1196.2224">&#1080;&#1089;&#1087;&#1086;&#1083;&#1100;&#1079;&#1091;&#1077;&#1090;</text></g><!--link Client to UC14--><g class="link" data-entity-1="Client" data-entity-2="UC14" data-link-type="dependency" data-source-line="124" data-uid="lnk53" id="link_Client_UC14"><path d="M1110.96,248.5338 C1150.84,248.5338 1218,248.5338 1218,248.5338 C1218,248.5338 1218,566.6138 1218,566.6138 C1218,566.6138 1239.24,566.6138 1266.9,566.6138" fill="none" id="Client-to-UC14" style="stroke:#E7E7E7;stroke-width:1;"/><polygon fill="#E7E7E7" points="1272.9,566.6138,1263.9,562.6138,1267.9,566.6138,1263.9,570.6138,1272.9,566.6138" style="stroke:#E7E7E7;stroke-width:1;"/><text fill="#FFFFFF" font-family="Arial" font-size="12" lengthAdjust="spacing" textLength="84" x="1133" y="393.6424">&#1087;&#1086;&#1076;&#1087;&#1080;&#1089;&#1099;&#1074;&#1072;&#1077;&#1090;</text></g><!--link System to UC8--><g class="link" data-entity-1="System" data-entity-2="UC8" data-link-type="dependency" data-source-line="129" data-uid="lnk54" id="link_System_UC8"><path d="M555.73,362.7238 C569.31,362.7238 582,362.7238 582,362.7238 C582,362.7238 582,772.6838 582,772.6838 C582,772.6838 1102.06,772.6838 1272.11,772.6838" fill="none" id="System-to-UC8" style="stroke:#E7E7E7;stroke-width:1;"/><polygon fill="#E7E7E7" points="1278.11,772.6838,1269.11,768.6838,1273.11,772.6838,1269.11,776.6838,1278.11,772.6838" style="stroke:#E7E7E7;stroke-width:1;"/><text fill="#FFFFFF" font-family="Arial" font-size="12" lengthAdjust="spacing" textLength="95.7598" x="615.94" y="784.8224">&#1087;&#1088;&#1077;&#1076;&#1086;&#1089;&#1090;&#1072;&#1074;&#1083;&#1103;&#1077;&#1090;</text></g><!--link System to UC9--><g class="link" data-entity-1="System" data-entity-2="UC9" data-link-type="dependency" data-source-line="130" data-uid="lnk55" id="link_System_UC9"><path d="M506,372.1638 C506,469.1038 506,686.8038 506,686.8038 C506,686.8038 1077.46,686.8038 1265.81,686.8038" fill="none" id="System-to-UC9" style="stroke:#E7E7E7;stroke-width:1;"/><polygon fill="#E7E7E7" points="1271.81,686.8038,1262.81,682.8038,1266.81,686.8038,1262.81,690.8038,1271.81,686.8038" style="stroke:#E7E7E7;stroke-width:1;"/><text fill="#FFFFFF" font-family="Arial" font-size="12" lengthAdjust="spacing" textLength="95.7598" x="635.59" y="683.9424">&#1087;&#1088;&#1077;&#1076;&#1086;&#1089;&#1090;&#1072;&#1074;&#1083;&#1103;&#1077;&#1090;</text></g><!--link System to UC11--><g class="link" data-entity-1="System" data-entity-2="UC11" data-link-type="dependency" data-source-line="131" data-uid="lnk56" id="link_System_UC11"><path d="M555.9,344.1537 C600.17,344.1537 674.45,344.1537 732.98,344.1537" fill="none" id="System-to-UC11" style="stroke:#E7E7E7;stroke-width:1;"/><polygon fill="#E7E7E7" points="738.98,344.1537,729.98,340.1537,733.98,344.1537,729.98,348.1537,738.98,344.1537" style="stroke:#E7E7E7;stroke-width:1;"/><text fill="#FFFFFF" font-family="Arial" font-size="12" lengthAdjust="spacing" textLength="95.7598" x="551.44" y="356.2924">&#1087;&#1088;&#1077;&#1076;&#1086;&#1089;&#1090;&#1072;&#1074;&#1083;&#1103;&#1077;&#1090;</text></g><!--link System to UC16--><g class="link" data-entity-1="System" data-entity-2="UC16" data-link-type="dependency" data-source-line="132" data-uid="lnk57" id="link_System_UC16"><path d="M499,372.3238 C499,487.9138 499,782.3538 499,782.3538 C499,782.3538 647.66,782.3538 738.89,782.3538" fill="none" id="System-to-UC16" style="stroke:#E7E7E7;stroke-width:1;"/><polygon fill="#E7E7E7" points="744.89,782.3538,735.89,778.3538,739.89,782.3538,735.89,786.3538,744.89,782.3538" style="stroke:#E7E7E7;stroke-width:1;"/><text fill="#FFFFFF" font-family="Arial" font-size="12" lengthAdjust="spacing" textLength="95.7598" x="403" y="712.4224">&#1087;&#1088;&#1077;&#1076;&#1086;&#1089;&#1090;&#1072;&#1074;&#1083;&#1103;&#1077;&#1090;</text></g><!--link UC6 to UC8--><g class="link" data-entity-1="UC6" data-entity-2="UC8" data-link-type="dependency" data-source-line="137" data-uid="lnk58" id="link_UC6_UC8"><path d="M1172.43,586.4538 C1185.15,586.4538 1194,586.4538 1194,586.4538 C1194,586.4538 1194,768.7038 1194,768.7038 C1194,768.7038 1242.64,768.7038 1282.76,768.7038" fill="none" id="UC6-to-UC8" style="stroke:#E7E7E7;stroke-width:1;stroke-dasharray:7,7;"/><polygon fill="#E7E7E7" points="1288.76,768.7038,1279.76,764.7038,1283.76,768.7038,1279.76,772.7038,1288.76,768.7038" style="stroke:#E7E7E7;stroke-width:1;"/><text fill="#FFFFFF" font-family="Arial" font-size="12" lengthAdjust="spacing" textLength="58.1602" x="1195" y="726.3124">&#171;include&#187;</text></g><!--link UC6 to UC9--><g class="link" data-entity-1="UC6" data-entity-2="UC9" data-link-type="dependency" data-source-line="138" data-uid="lnk59" id="link_UC6_UC9"><path d="M1181.23,579.8438 C1195.79,579.8438 1206,579.8438 1206,579.8438 C1206,579.8438 1206,681.9238 1206,681.9238 C1206,681.9238 1240.2,681.9238 1274.9,681.9238" fill="none" id="UC6-to-UC9" style="stroke:#E7E7E7;stroke-width:1;stroke-dasharray:7,7;"/><polygon fill="#E7E7E7" points="1280.9,681.9238,1271.9,677.9238,1275.9,681.9238,1271.9,685.9238,1280.9,681.9238" style="stroke:#E7E7E7;stroke-width:1;"/><text fill="#FFFFFF" font-family="Arial" font-size="12" lengthAdjust="spacing" textLength="58.1602" x="1207" y="668.0924">&#171;include&#187;</text></g><!--link UC6 to UC13--><g class="link" data-entity-1="UC6" data-entity-2="UC13" data-link-type="dependency" data-source-line="139" data-uid="lnk60" id="link_UC6_UC13"><path d="M1169,565.3238 C1169,533.5338 1169,445.0838 1169,445.0838 C1169,445.0838 1219.91,445.0838 1266.16,445.0838" fill="none" id="UC6-to-UC13" style="stroke:#E7E7E7;stroke-width:1;stroke-dasharray:7,7;"/><polygon fill="#E7E7E7" points="1272.16,445.0838,1263.16,441.0838,1267.16,445.0838,1263.16,449.0838,1272.16,445.0838" style="stroke:#E7E7E7;stroke-width:1;"/><text fill="#FFFFFF" font-family="Arial" font-size="12" lengthAdjust="spacing" textLength="58.1602" x="1170" y="465.7624">&#171;include&#187;</text></g><!--link UC6 to UC14--><g class="link" data-entity-1="UC6" data-entity-2="UC14" data-link-type="dependency" data-source-line="140" data-uid="lnk61" id="link_UC6_UC14"><path d="M1180.99,573.2238 C1207.77,573.2238 1230.19,573.2238 1254.97,573.2238" fill="none" id="UC6-to-UC14" style="stroke:#E7E7E7;stroke-width:1;stroke-dasharray:7,7;"/><polygon fill="#E7E7E7" points="1260.97,573.2238,1251.97,569.2238,1255.97,573.2238,1251.97,577.2238,1260.97,573.2238" style="stroke:#E7E7E7;stroke-width:1;"/><text fill="#FFFFFF" font-family="Arial" font-size="12" lengthAdjust="spacing" textLength="58.1602" x="1221.98" y="570.3624">&#171;include&#187;</text></g><!--link UC20 to UC16--><g class="link" data-entity-1="UC20" data-entity-2="UC16" data-link-type="dependency" data-source-line="141" data-uid="lnk62" id="link_UC20_UC16"><path d="M615.89,1265.5338 C700.01,1265.5338 811,1265.5338 811,1265.5338 C811,1265.5338 811,916.4138 811,824.8638" fill="none" id="UC20-to-UC16" style="stroke:#E7E7E7;stroke-width:1;stroke-dasharray:7,7;"/><polygon fill="#E7E7E7" points="811,818.8638,807,827.8638,811,823.8638,815,827.8638,811,818.8638" style="stroke:#E7E7E7;stroke-width:1;"/><text fill="#FFFFFF" font-family="Arial" font-size="12" lengthAdjust="spacing" textLength="58.1602" x="752" y="1151.8924">&#171;include&#187;</text></g><!--link UC3 to UC4--><g class="link" data-entity-1="UC3" data-entity-2="UC4" data-link-type="extension" data-source-line="146" data-uid="lnk63" id="link_UC3_UC4"><path d="M887.7,731.6238 C920.83,731.6238 941.68,731.6238 975.91,731.6238" fill="none" id="UC3-to-UC4" style="stroke:#E7E7E7;stroke-width:1;stroke-dasharray:7,7;"/><polygon fill="none" points="993.91,731.6238,975.91,725.6238,975.91,737.6238,993.91,731.6238" style="stroke:#E7E7E7;stroke-width:1;"/><text fill="#FFFFFF" font-family="Arial" font-size="12" lengthAdjust="spacing" textLength="56.4785" x="941.8" y="743.7624">&#171;extend&#187;</text></g><!--link UC3 to UC5--><g class="link" data-entity-1="UC3" data-entity-2="UC5" data-link-type="extension" data-source-line="147" data-uid="lnk64" id="link_UC3_UC5"><path d="M896,716.1938 C896,703.3238 896,671.6338 896,671.6338 C896,671.6338 945.14,671.6338 998.78,671.6338" fill="none" id="UC3-to-UC5" style="stroke:#E7E7E7;stroke-width:1;stroke-dasharray:7,7;"/><polygon fill="none" points="1016.78,671.6338,998.78,665.6338,998.78,677.6338,1016.78,671.6338" style="stroke:#E7E7E7;stroke-width:1;"/><text fill="#FFFFFF" font-family="Arial" font-size="12" lengthAdjust="spacing" textLength="56.4785" x="877.11" y="683.7724">&#171;extend&#187;</text></g><!--link UC3 to UC6--><g class="link" data-entity-1="UC3" data-entity-2="UC6" data-link-type="extension" data-source-line="148" data-uid="lnk65" id="link_UC3_UC6"><path d="M899.07,721.6038 C908.65,721.6038 915,721.6038 915,721.6038 C915,721.6038 915,567.4638 915,567.4638 C915,567.4638 933.42,567.4638 972.26,567.4638" fill="none" id="UC3-to-UC6" style="stroke:#E7E7E7;stroke-width:1;stroke-dasharray:7,7;"/><polygon fill="none" points="990.26,567.4638,972.26,561.4638,972.26,573.4638,990.26,567.4638" style="stroke:#E7E7E7;stroke-width:1;"/><text fill="#FFFFFF" font-family="Arial" font-size="12" lengthAdjust="spacing" textLength="56.4785" x="916" y="627.0124">&#171;extend&#187;</text></g><!--link UC7 to UC8--><g class="link" data-entity-1="UC7" data-entity-2="UC8" data-link-type="extension" data-source-line="149" data-uid="lnk66" id="link_UC7_UC8"><path d="M1141.93,809.5738 C1220.87,809.5738 1350,809.5738 1350,809.5738 C1350,809.5738 1350,818.2938 1350,809.8738" fill="none" id="UC7-to-UC8" style="stroke:#E7E7E7;stroke-width:1;stroke-dasharray:7,7;"/><polygon fill="none" points="1350,791.8738,1344,809.8738,1356,809.8738,1350,791.8738" style="stroke:#E7E7E7;stroke-width:1;"/><text fill="#FFFFFF" font-family="Arial" font-size="12" lengthAdjust="spacing" textLength="56.4785" x="1197.81" y="821.7124">&#171;extend&#187;</text></g><!--link UC7 to UC9--><g class="link" data-entity-1="UC7" data-entity-2="UC9" data-link-type="extension" data-source-line="150" data-uid="lnk67" id="link_UC7_UC9"><path d="M1148.29,800.9538 C1187.66,800.9538 1230,800.9538 1230,800.9538 C1230,800.9538 1230,696.5538 1230,696.5538 C1230,696.5538 1233.7,696.5538 1256.93,696.5538" fill="none" id="UC7-to-UC9" style="stroke:#E7E7E7;stroke-width:1;stroke-dasharray:7,7;"/><polygon fill="none" points="1274.93,696.5538,1256.93,690.5538,1256.93,702.5538,1274.93,696.5538" style="stroke:#E7E7E7;stroke-width:1;"/><text fill="#FFFFFF" font-family="Arial" font-size="12" lengthAdjust="spacing" textLength="56.4785" x="1173" y="779.2824">&#171;extend&#187;</text></g><!--link UC11 to UC12--><g class="link" data-entity-1="UC11" data-entity-2="UC12" data-link-type="extension" data-source-line="151" data-uid="lnk68" id="link_UC11_UC12"><path d="M891.78,353.5338 C955.05,353.5338 1032,353.5338 1032,353.5338 C1032,353.5338 1032,399.0138 1032,426.7838" fill="none" id="UC11-to-UC12" style="stroke:#E7E7E7;stroke-width:1;stroke-dasharray:7,7;"/><polygon fill="none" points="1032,444.7838,1038,426.7838,1026,426.7838,1032,444.7838" style="stroke:#E7E7E7;stroke-width:1;"/><text fill="#FFFFFF" font-family="Arial" font-size="12" lengthAdjust="spacing" textLength="56.4785" x="950.52" y="365.6724">&#171;extend&#187;</text></g><!--link UC17 to UC18--><g class="link" data-entity-1="UC17" data-entity-2="UC18" data-link-type="extension" data-source-line="152" data-uid="lnk69" id="link_UC17_UC18"><path d="M638.28,1418.5338 C657.77,1418.5338 659.98,1418.5338 679.4,1418.5338" fill="none" id="UC17-to-UC18" style="stroke:#E7E7E7;stroke-width:1;stroke-dasharray:7,7;"/><polygon fill="none" points="697.4,1418.5338,679.4,1412.5338,679.4,1424.5338,697.4,1418.5338" style="stroke:#E7E7E7;stroke-width:1;"/><text fill="#FFFFFF" font-family="Arial" font-size="12" lengthAdjust="spacing" textLength="56.4785" x="610.84" y="1430.6724">&#171;extend&#187;</text></g><!--reverse link User to Engineer--><g class="link" data-entity-1="User" data-entity-2="Engineer" data-link-type="extension" data-source-line="158" data-uid="lnk71" id="link_User_Engineer"><path d="M145.54,839.3638 C238.87,839.3638 410.33,839.3638 488.42,839.3638" fill="none" id="User-backto-Engineer" style="stroke:#E7E7E7;stroke-width:1;"/><polygon fill="none" points="127.54,839.3638,145.54,845.3638,145.54,833.3638,127.54,839.3638" style="stroke:#E7E7E7;stroke-width:1;"/><text fill="#FFFFFF" font-family="Arial" font-size="12" lengthAdjust="spacing" textLength="66.6211" x="240.98" y="851.5024">&#1085;&#1072;&#1089;&#1083;&#1077;&#1076;&#1091;&#1077;&#1090;</text></g><!--reverse link User to Admin--><g class="link" data-entity-1="User" data-entity-2="Admin" data-link-type="extension" data-source-line="159" data-uid="lnk72" id="link_User_Admin"><path d="M74,883.2538 C74,983.6338 74,1226.5338 74,1226.5338 C74,1226.5338 155.04,1226.5338 212.34,1226.5338" fill="none" id="User-backto-Admin" style="stroke:#E7E7E7;stroke-width:1;"/><polygon fill="none" points="74,865.2538,68,883.2538,80,883.2538,74,865.2538" style="stroke:#E7E7E7;stroke-width:1;"/><text fill="#FFFFFF" font-family="Arial" font-size="12" lengthAdjust="spacing" textLength="66.6211" x="7" y="1127.2024">&#1085;&#1072;&#1089;&#1083;&#1077;&#1076;&#1091;&#1077;&#1090;</text></g><!--link User to GMN73--><g class="link" data-entity-1="User" data-entity-2="GMN73" data-link-type="association" data-source-line="162" data-uid="lnk75" id="link_User_GMN73"><path d="M127.3,813.7038 C161.7,813.7038 200,813.7038 200,813.7038 C200,813.7038 200,267.7038 200,125.8737" fill="none" id="User-GMN73" style="stroke:#E7E7E7;stroke-width:1;stroke-dasharray:7,7;"/></g><!--SRC=[tLdTJXj75BxtKqpfHSa5aTSsnaOM4ZL6GggeL43gHMySUu4LPetifIfjaFXfcrQXnVob904JAAqYKIcGuCRXznLcNo4lq3n2lZExCwoDJRQvCmWixvnlpfoVRsRE7Zx9wgE6gRE-WQzIoU61BmTPJX-rc9Ld1MDit0hKFB6iKT0pbf4t0u7YX65EfGlfIVP3WB6fT6OYFQOFMJCvdH4cROxbT0ZkGJ1Mo4-RsMG-bo-mJ_l53oHOE3sTi_hpfZMOdjHPRy58vsh7XuplTQQ5C9Y3ZTRCbCxo1Miy7vZrhZzTr3FfeYxi-Bp1Sht9FfBa2rcze4PZoM1GZGwF6va9KoyM6QrrpQ8hKyBoIVXvBv_BkWEktg3ugJKldR4WQcXSRrzVB1MjDuvKn3x2kD27RL6PQHAiO7zCvAR6deWMZQUqZxV74wmQOrpEDCrR_tLJWi5eD9biO4huPbCY3Ksn30jFV9TNxNbxWLVu6JzaRKDwuLiZewVCCN1EBxHzO_9rNkM7_9KzXyypWU8l-I4UQVWSKo_uIqPQ-2M-djfB_3KDaH2Zou70PuolyQUyn5VvDZ_WZndVmSCJli7t0Z8CRUzsrlwkjwRU614i_48XpT-3XcVy00CEow1ZPP_nJQpxBpISyuezryRIHIOLr23NISanrgaAEx4gUKZkkBDwivE6wPtowA__gijrDWhaq4pHqYTP8b4KNtfwQXPwpc3hAPQfKBJ4X6JEq4rBERF5otm5TZ_b_o12PRv14Nec1ihy4RpSnlSDOAyOJF4wefaN_0YgAUhd-5vX_59avXGFJX2mhXCunjf7abetuwlsJv0U8uqCILFEs8jto3PW93W4y0xKNG1sXaz4Y44ZScyl8tH8iZiZ96U4CMCTSLz0zk6o5tteOiCI6t6r8_xsCdGlUT0kDYAndS2MeVL4E4RvQeZlbFYeifpeUKAyP5utb3LHEQCBC_uG3A-8TIIWIm9Y0Emx2brHJ8hY55JuSOmmIc5SHJpes6u_8CtsGndae09GJjPegd0EIzi_qyQHG9KEZVAn9Lp-1N-BzeA4gFXhOTVAEMUZNiXrbJ-QYhyc4a1CmCOb5Yn9Y0gxHd77Vd9sXxt8JyWqNfL05MyjsksGKQH6h4_RwXN39Yr9DCLwLf5-5RnUwO3sRNSZx-FpCT-jf_bIYR0LVjGXcB90kzh-4GDlx7aliIc1Vmhs7-BmEPNSP_RlE8ygxkcbB5TfrIYlsn2-5cnweEOr9BgcSgvHqdSfiFXpzb3LGnjDvJyKR6AO9pGXHOQG9CEvOxD31MyYFRjE4m6TfHFsxKQfjNxfLjX5ObzWrsqoGGFdf2Cgb5Yx5eM7TrhICtdTi8wE7g82wwwx7h6HaCbwNCWdBkmJ5_69w_I9Y_h4TVd4nNpYuZvnMj0lq6z6DByfqVpcHFER5CrlLhIcQRa5fq89nSIME1isCRn79mC-oyu9qTMo1uIeB3zqEjI0WhvGNRvGCL-ek1zKo9TT8UqMK_G9YlHDSN7XEcz9VvoNaPe3wj9J5JuKhtAt95kxxa6oWMFbWBL7MlO8SLyvFJSf5PWLAbP5BIfAJHIlbBSQRFn_O9sBqYyuUZEuLTbJ1btefVov-nx-WWqC9hyOwKknzixMv0wLSdVlIk8a4eQPoKrdzPuUZoJUL29gdIQYo3KHRWXN5gsJtHu-fBuUJWtseI1fLJg4aQFxyfKXaT2_itGpAzAd99rD9T5wIPUKn9fAulKId3IkIDJSjJ8rJQlJsAeKsaOPkukwOGFbRHcNKybfy7cxcXXkIUyyRS-tSx-zsrazStfCdhQmw3RYMNH2Hufw8K0VB76_eqDrQkageVxBlEYN7BlbuXNEAIyRWW9ctjBT_zZaHvq56ECheiK30r3Gl66YaOYPzZp3-8dJLUA712pp8_jNfq5pWH98TM5ujHlYjtDxDpHG9U1QqxIcVHC0UnbP-Hu0]--></g></svg>